<svg xmlns="http://www.w3.org/2000/svg" width="20" height="20" fill="none" xmlns:v="https://vecta.io/nano"><path fill-rule="evenodd" d="M17.5 1.25h-15A1.25 1.25 0 0 0 1.25 2.5v15a1.25 1.25 0 0 0 1.25 1.25h15a1.25 1.25 0 0 0 1.25-1.25v-15a1.25 1.25 0 0 0-1.25-1.25zM2.5 0A2.5 2.5 0 0 0 0 2.5v15A2.5 2.5 0 0 0 2.5 20h15a2.5 2.5 0 0 0 2.5-2.5v-15A2.5 2.5 0 0 0 17.5 0h-15z" fill="url(#A)"/><defs><linearGradient id="A" x1="0" y1="10" x2="20" y2="10" gradientUnits="userSpaceOnUse"><stop stop-color="#35a2d8"/><stop offset=".5" stop-color="#12d8fa"/><stop offset="1" stop-color="#35a2d8"/></linearGradient></defs></svg>