<svg xmlns="http://www.w3.org/2000/svg" width="11" height="10" fill="none" xmlns:v="https://vecta.io/nano"><path fill-rule="evenodd" d="M8.713 1.212c.175-.173.41-.27.657-.272s.483.096.66.268a.94.94 0 0 1 .281.653c.004.246-.09.484-.26.663l-5 6.238c-.086.092-.19.167-.304.218s-.24.08-.365.082-.25-.02-.368-.068-.223-.117-.312-.207L.405 5.48C.313 5.394.24 5.29.188 5.176a.94.94 0 0 1-.081-.365c-.002-.126.02-.25.068-.368S.292 4.22.38 4.13s.195-.16.312-.206a.94.94 0 0 1 .733.013.94.94 0 0 1 .304.217L4.348 6.77l4.34-5.53c.008-.01.016-.02.025-.028h-.001z" fill="url(#A)"/><defs><linearGradient id="A" x1=".107" y1="5.001" x2="10.31" y2="5.001" gradientUnits="userSpaceOnUse"><stop stop-color="#35a2d8"/><stop offset=".5" stop-color="#12d8fa"/><stop offset="1" stop-color="#35a2d8"/></linearGradient></defs></svg>